Coordinates
version=1
nRows=14
nColumns=40
inDegrees=yes

Units are S.I. units (second, meters, Newtons, ...)
Angles are in degrees.

endheader
time	pelvis_tilt	pelvis_list	pelvis_rotation	pelvis_tx	pelvis_ty	pelvis_tz	hip_flexion_r	hip_adduction_r	hip_rotation_r	knee_angle_r	knee_angle_r_beta	ankle_angle_r	subtalar_angle_r	mtp_angle_r	hip_flexion_l	hip_adduction_l	hip_rotation_l	knee_angle_l	knee_angle_l_beta	ankle_angle_l	subtalar_angle_l	mtp_angle_l	lumbar_extension	lumbar_bending	lumbar_rotation	arm_flex_r	arm_add_r	arm_rot_r	elbow_flex_r	pro_sup_r	wrist_flex_r	wrist_dev_r	arm_flex_l	arm_add_l	arm_rot_l	elbow_flex_l	pro_sup_l	wrist_flex_l	wrist_dev_l
      1.32000000	      0.94733377	      2.03360662	     -3.31526607	      0.16795183	      0.89312674	      1.00903782	     -1.87150505	     -5.09041984	    -10.56348175	    -44.99348611	     -0.78528447	    -15.08637761	     -5.51586570	      2.11076436	     14.47997803	     -3.29447837	     12.34183852	    -15.38203468	     -0.26846715	     -1.39988135	      0.40465670	     -5.33021337	     -7.19376428	     -2.66952739	      4.05556219	     14.58113097	     -9.00610232	     17.09980749	     24.33796255	     89.95437384	      0.00000000	      0.00000000	     -3.55260962	      8.43776018	    -21.74767342	     11.78359120	     89.95437384	      0.00000000	      0.00000000
      1.33000000	      0.83038860	      2.22528659	     -3.31083928	      0.17786424	      0.89382352	      1.00818878	     -0.31268282	     -5.40046299	     -9.79923867	    -47.41249554	     -0.82750415	    -17.08617625	     -6.25180679	      2.76124209	     13.81709803	     -3.57752929	     12.59226705	    -15.26447575	     -0.26641536	     -0.91642118	     -0.27372969	     -5.13117999	     -6.99518244	     -2.83071693	      3.78152747	     14.18756388	     -8.85950397	     17.39967177	     23.93037866	     89.95437384	      0.00000000	      0.00000000	     -3.12663711	      8.56593434	    -21.97761957	     12.04076091	     89.95437384	      0.00000000	      0.00000000
      1.34000000	      0.74410186	      2.38372330	     -3.31023284	      0.18754914	      0.89424127	      1.00740442	      1.25160493	     -5.62893080	     -9.09123478	    -49.85389393	     -0.87011459	    -17.40277230	     -7.63326414	      3.12953651	     13.20257997	     -3.82505688	     12.71697336	    -15.24856371	     -0.26613764	     -0.23050390	     -0.88430245	     -5.07489337	     -6.84487139	     -2.95330411	      3.50041370	     13.86078913	     -8.72460570	     17.71285475	     23.46128334	     89.95437384	      0.00000000	      0.00000000	     -2.64506494	      8.69139730	    -22.22844543	     12.30344059	     89.95437384	      0.00000000	      0.00000000
      1.35000000	      0.75333414	      2.57909228	     -3.31021636	      0.19709664	      0.89456354	      1.00649771	      2.75708490	     -5.97487747	     -8.70359781	    -52.29443962	     -0.91271015	    -16.52317441	     -9.44956315	      3.39281447	     12.51091950	     -4.11967067	     12.85924218	    -15.27167369	     -0.26654099	      0.42750066	     -1.44109484	     -5.05700519	     -6.82659994	     -3.10918071	      3.23977559	     13.51174345	     -8.68406514	     18.08337251	     23.10055335	     89.95437384	      0.00000000	      0.00000000	     -2.07577100	      8.82718310	    -22.41067896	     12.61717931	     89.95437384	      0.00000000	      0.00000000
      1.36000000	      0.93356313	      2.74718250	     -3.37955631	      0.20670492	      0.89500675	      1.00565716	      4.08448644	     -6.34811976	     -8.46747665	    -54.54664436	     -0.95201854	    -15.47171601	    -11.11763787	      3.60610447	     11.60137492	     -4.39042832	     12.98450181	    -15.28339618	     -0.26674558	      1.04549051	     -1.94786757	     -5.07584783	     -6.96796455	     -3.21746012	      3.07936483	     13.18248946	     -8.66521835	     18.40223151	     22.67641956	     89.95437384	      0.00000000	      0.00000000	     -1.44894110	      8.93120959	    -22.49522334	     12.96083084	     89.95437384	      0.00000000	      0.00000000
      1.37000000	      1.07772329	      2.95942562	     -3.47605228	      0.21608709	      0.89537148	      1.00491233	      5.51605507	     -6.70960111	     -8.15128610	    -56.63940303	     -0.98854407	    -14.21860456	    -13.25183143	      3.98790149	     10.70795684	     -4.68089439	     13.39753538	    -15.16688300	     -0.26471205	      1.55379137	     -2.47544619	     -5.08381012	     -7.12564043	     -3.38408762	      2.87312029	     12.87464910	     -8.65164396	     18.77521173	     22.31867439	     89.95437384	      0.00000000	      0.00000000	     -0.81349313	      9.08582203	    -22.53377126	     13.39270144	     89.95437384	      0.00000000	      0.00000000
      1.38000000	      1.36694778	      3.04285306	     -3.52247933	      0.22540757	      0.89591888	      1.00407456	      6.71904572	     -6.97567897	     -7.98535238	    -58.40956083	     -1.01943915	    -13.29319084	    -14.72297356	      4.35453069	      9.68794571	     -4.87197495	     13.60895550	    -15.13336806	     -0.26412710	      2.08497822	     -2.97147627	     -5.11584464	     -7.45478621	     -3.39402820	      2.68949707	     12.59987421	     -8.67588283	     19.02128762	     21.87032184	     89.95437384	      0.00000000	      0.00000000	     -0.06301756	      9.17792623	    -22.69248866	     13.74782002	     89.95437384	      0.00000000	      0.00000000
      1.39000000	      1.67326730	      2.82530139	     -3.31226294	      0.23455498	      0.89660265	      1.00325186	      7.79725608	     -6.92218111	     -8.11607556	    -59.83796338	     -1.04436948	    -12.84087629	    -15.03459310	      4.39038493	      8.72289867	     -4.73962389	     13.75768533	    -15.21629491	     -0.26557445	      2.36957365	     -3.07323581	     -5.09303989	     -7.88293997	     -3.06024816	      2.28119827	     12.25547399	     -8.72920541	     19.08636925	     21.63202360	     89.95437384	      0.00000000	      0.00000000	      0.76536866	      9.28585410	    -22.61874665	     14.15690121	     89.95437384	      0.00000000	      0.00000000
      1.40000000	      2.01707015	      2.72349373	     -3.23138717	      0.24382978	      0.89726625	      1.00257988	      8.84557935	     -6.90866127	     -8.02981298	    -61.08876221	     -1.06620004	    -12.10436936	    -15.60985428	      4.46415362	      7.67619224	     -4.75443613	     13.72910374	    -15.23127992	     -0.26583598	      2.88690784	     -3.32682648	     -5.14305809	     -8.28943249	     -2.86351376	      1.96160942	     11.99914420	     -8.74743561	     19.22766093	     21.12315471	     89.95437384	      0.00000000	      0.00000000	      1.56207933	      9.34749860	    -22.66211242	     14.46461853	     89.95437384	      0.00000000	      0.00000000
      1.41000000	      2.32114692	      2.60849465	     -3.35894910	      0.25319588	      0.89787031	      1.00271697	      9.96615857	     -6.48440171	     -7.38290280	    -62.25122105	     -1.08648877	     -9.24472645	    -16.02586442	     16.75371323	      6.71429886	     -4.61307986	     14.15251841	    -15.42771424	     -0.26926441	      3.80649955	     -4.61431568	     -4.05915771	     -8.59829588	     -2.72910450	      1.92574337	     11.70763995	     -8.78028796	     19.79891658	     20.56571077	     89.95437384	      0.00000000	      0.00000000	      2.34071627	      9.61871963	    -22.95092456	     15.06902306	     89.95437384	      0.00000000	      0.00000000
      1.42000000	      2.58968033	      2.38314339	     -3.15291300	      0.26245356	      0.89848475	      1.00212315	     10.98984164	     -6.20059963	     -7.29816505	    -62.95333327	     -1.09874294	     -8.70573700	    -15.92669013	     16.44517154	      5.82189084	     -4.49109149	     13.88754773	    -15.58419456	     -0.27199551	      4.19364562	     -4.61675163	     -4.08231364	     -8.89101532	     -2.37763965	      1.54202757	     11.35283354	     -8.81955785	     19.82784147	     20.16176289	     89.95437384	      0.00000000	      0.00000000	      3.17693430	      9.69895819	    -22.93155992	     15.38166417	     89.95437384	      0.00000000	      0.00000000
      1.43000000	      3.00649271	      1.96182168	     -2.85531605	      0.27166944	      0.89940667	      1.00160559	     11.63407642	     -5.51616975	     -7.12420592	    -63.19074073	     -1.10288648	     -7.08387928	    -15.78099539	     16.04760263	      4.73670361	     -4.25384052	     12.94596611	    -15.73144930	     -0.27456559	      5.39231850	     -4.00432533	     -4.12974888	     -9.35307889	     -1.80340279	      1.11601482	     11.10845377	     -8.84697295	     19.87269200	     19.53070135	     89.95437384	      0.00000000	      0.00000000	      4.03723020	      9.89556896	    -23.71373077	     15.83834776	     89.95437384	      0.00000000	      0.00000000
      1.44000000	      3.15452294	      1.74185140	     -2.63058052	      0.28080707	      0.89980868	      1.00112700	     12.76888690	     -5.16449698	     -7.03831765	    -63.47621782	     -1.10786900	     -6.66435372	    -15.45198972	     15.72009935	      3.98096771	     -4.09497563	     12.65946314	    -15.84673938	     -0.27657778	      5.71246400	     -3.97377708	     -4.12941565	     -9.47586465	     -1.45173983	      0.74862882	     10.69172748	     -8.92094825	     19.87842399	     19.17223120	     89.95437384	      0.00000000	      0.00000000	      4.88281894	     10.01067465	    -23.69185367	     16.19785906	     89.95437384	      0.00000000	      0.00000000
      1.45000000	      3.28779242	      1.44739078	     -2.44206169	      0.28992134	      0.90022551	      1.00066692	     13.80960382	     -4.61122559	     -6.82451968	    -63.40409004	     -1.10661013	     -5.82430256	    -15.16433889	     15.36383313	      3.18868393	     -3.89194876	     12.05412523	    -15.89691378	     -0.27745349	      6.33816753	     -4.05105908	     -4.18504339	     -9.54558760	     -1.00282869	      0.43256256	     10.35709063	     -8.97843230	     19.89161040	     18.55302903	     89.95437384	      0.00000000	      0.00000000	      5.75553555	     10.09496329	    -23.75747042	     16.50540788	     89.95437384	      0.00000000	      0.00000000
